<svg xmlns="http://www.w3.org/2000/svg" width="1200" height="630" viewBox="0 0 1200 630" role="img" aria-labelledby="title description">
  <title id="title">Digital Trust Solutions</title>
  <desc id="description">Logo corporativo de Digital Trust Solutions sobre un fondo tecnológico oscuro.</desc>
  <defs>
    <radialGradient id="backgroundGlow" cx="50%" cy="38%" r="68%">
      <stop offset="0%" stop-color="#1c3044"/>
      <stop offset="46%" stop-color="#0c1723"/>
      <stop offset="100%" stop-color="#05080d"/>
    </radialGradient>
    <linearGradient id="silver" x1="0%" y1="0%" x2="100%" y2="100%">
      <stop offset="0%" stop-color="#66707c"/>
      <stop offset="24%" stop-color="#f8fafc"/>
      <stop offset="48%" stop-color="#a7b0bb"/>
      <stop offset="72%" stop-color="#ffffff"/>
      <stop offset="100%" stop-color="#7c8794"/>
    </linearGradient>
    <pattern id="grid" width="60" height="60" patternUnits="userSpaceOnUse">
      <path d="M60 0H0V60" fill="none" stroke="#91a9bf" stroke-opacity="0.07" stroke-width="1"/>
    </pattern>
    <filter id="softGlow" x="-40%" y="-40%" width="180%" height="180%">
      <feGaussianBlur stdDeviation="7" result="blur"/>
      <feMerge><feMergeNode in="blur"/><feMergeNode in="SourceGraphic"/></feMerge>
    </filter>
  </defs>
  <rect width="1200" height="630" fill="url(#backgroundGlow)"/>
  <rect width="1200" height="630" fill="url(#grid)"/>
  <circle cx="600" cy="265" r="205" fill="#7fb5df" opacity="0.055"/>
  <g transform="translate(469 74) scale(.69)" fill="none" stroke="url(#silver)" stroke-linejoin="round" filter="url(#softGlow)">
    <path d="M190 38 305 82v88c0 55-50 88-115 112C125 258 75 225 75 170V82l115-44Z" stroke-width="12"/>
    <path d="M145 95h45c52 0 77 31 77 70 0 40-26 67-75 67h-47v-58" stroke-width="11" stroke-linecap="round"/>
    <path d="M164 119h27c30 0 48 18 48 45 0 26-18 43-48 43h-27v-33M164 119v46h41" stroke-width="8" stroke-linecap="round"/>
    <path d="M111 110v32h24M107 188h23v27h18M181 232v18M253 187h24" stroke-width="6" stroke-linecap="round"/>
    <g fill="#07101a" stroke="url(#silver)" stroke-width="5">
      <circle cx="111" cy="101" r="8"/><circle cx="98" cy="188" r="8"/><circle cx="181" cy="258" r="8"/><circle cx="283" cy="187" r="8"/>
    </g>
    <circle cx="135" cy="142" r="7" fill="url(#silver)" stroke="none"/><circle cx="148" cy="215" r="7" fill="url(#silver)" stroke="none"/>
  </g>
  <text x="600" y="405" text-anchor="middle" fill="#f5f8fb" font-family="Arial, Helvetica, sans-serif" font-size="48" font-weight="700" letter-spacing="2">DIGITAL TRUST SOLUTIONS</text>
  <text x="600" y="450" text-anchor="middle" fill="#aebdca" font-family="Arial, Helvetica, sans-serif" font-size="18" font-weight="500" letter-spacing="5">SECURE DIGITAL SYSTEMS</text>
  <line x1="488" y1="500" x2="712" y2="500" stroke="#aebdca" stroke-opacity="0.42"/>
</svg>
