<svg xmlns="http://www.w3.org/2000/svg" viewBox="55 20 270 275" role="img" aria-labelledby="title description">
  <title id="title">Digital Trust Solutions</title>
  <desc id="description">Escudo tecnológico de Digital Trust Solutions.</desc>
  <defs>
    <linearGradient id="silver" x1="0%" y1="0%" x2="100%" y2="100%">
      <stop offset="0%" stop-color="#66707C"/><stop offset="24%" stop-color="#F8FAFC"/>
      <stop offset="48%" stop-color="#A7B0BB"/><stop offset="72%" stop-color="#FFFFFF"/>
      <stop offset="100%" stop-color="#7C8794"/>
    </linearGradient>
  </defs>
  <g fill="none" stroke="url(#silver)" stroke-linejoin="round">
    <path d="M190 38 305 82v88c0 55-50 88-115 112C125 258 75 225 75 170V82l115-44Z" stroke-width="12"/>
    <path d="M145 95h45c52 0 77 31 77 70 0 40-26 67-75 67h-47v-58" stroke-width="11" stroke-linecap="round"/>
    <path d="M164 119h27c30 0 48 18 48 45 0 26-18 43-48 43h-27v-33M164 119v46h41" stroke-width="8" stroke-linecap="round"/>
    <path d="M111 110v32h24M107 188h23v27h18M181 232v18M253 187h24" stroke-width="6" stroke-linecap="round"/>
  </g>
  <g fill="#050608" stroke="url(#silver)" stroke-width="5">
    <circle cx="111" cy="101" r="8"/><circle cx="98" cy="188" r="8"/>
    <circle cx="181" cy="258" r="8"/><circle cx="283" cy="187" r="8"/>
  </g>
  <circle cx="135" cy="142" r="7" fill="url(#silver)"/><circle cx="148" cy="215" r="7" fill="url(#silver)"/>
</svg>
