<svg xmlns="http://www.w3.org/2000/svg" viewBox="0 0 160 176" role="img" aria-labelledby="title">
  <title id="title">Digital Trust Solutions</title>
  <path d="M80 6 148 34v49c0 43-25 72-68 87C37 155 12 126 12 83V34L80 6Z" fill="#0F1720" stroke="#38BDF8" stroke-width="7" stroke-linejoin="round"/>
  <path d="M80 18 137 42v41c0 35-19 59-57 74-38-15-57-39-57-74V42L80 18Z" fill="none" stroke="#F8FAFC" stroke-width="3" stroke-linejoin="round"/>
  <path d="M58 52h27c28 0 45 17 45 44s-17 44-45 44H61v-35h18v18h7c16 0 25-10 25-27s-9-27-25-27H76v25H58V52Z" fill="none" stroke="#38BDF8" stroke-width="9" stroke-linecap="round" stroke-linejoin="round"/>
  <path d="M58 60H43V48M61 116H39M72 139v10" fill="none" stroke="#38BDF8" stroke-width="6" stroke-linecap="round"/>
  <g fill="#0F1720" stroke="#38BDF8" stroke-width="5">
    <circle cx="43" cy="42" r="7"/><circle cx="33" cy="116" r="7"/><circle cx="72" cy="151" r="7"/><circle cx="88" cy="116" r="7"/>
  </g>
</svg>
