<svg xmlns="http://www.w3.org/2000/svg" viewBox="55 20 270 275" role="img" aria-labelledby="title description">
  <title id="title">DT Solutions</title>
  <desc id="description">Escudo tecnológico de DT Solutions.</desc>
  <rect x="55" y="20" width="270" height="275" rx="12" fill="#050608"/>
  <path d="M190 38 305 82v88c0 55-50 88-115 112C125 258 75 225 75 170V82l115-44Z" fill="none" stroke="#fff" stroke-width="12" stroke-linejoin="round"/>
  <path d="M145 95h45c52 0 77 31 77 70 0 40-26 67-75 67h-47v-58" fill="none" stroke="#fff" stroke-width="11" stroke-linecap="round" stroke-linejoin="round"/>
  <path d="M164 119h27c30 0 48 18 48 45 0 26-18 43-48 43h-27v-33M164 119v46h41" fill="none" stroke="#fff" stroke-width="8" stroke-linecap="round" stroke-linejoin="round"/>
  <path d="M111 110v32h24M107 188h23v27h18M181 232v18M253 187h24" fill="none" stroke="#fff" stroke-width="6" stroke-linecap="round" stroke-linejoin="round"/>
  <circle cx="111" cy="101" r="8" fill="#050608" stroke="#fff" stroke-width="5"/><circle cx="135" cy="142" r="7" fill="#fff"/>
  <circle cx="98" cy="188" r="8" fill="#050608" stroke="#fff" stroke-width="5"/><circle cx="148" cy="215" r="7" fill="#fff"/>
  <circle cx="181" cy="258" r="8" fill="#050608" stroke="#fff" stroke-width="5"/><circle cx="283" cy="187" r="8" fill="#050608" stroke="#fff" stroke-width="5"/>
</svg>
